<svg width="90" height="268" viewBox="0 0 117 268" fill="none" xmlns="http://www.w3.org/2000/svg">
<g clip-path="url(#clip0_123_7)">
<mask id="mask0_123_7" style="mask-type:luminance" maskUnits="userSpaceOnUse" x="-639" y="-432" width="1300" height="732">
<path d="M661 300H-639V-432H661V300Z" fill="white"/>
</mask>
<g mask="url(#mask0_123_7)">
<path d="M89.6992 12.7V14.5H102.199V26.9H103.999V14.5H116.499V12.7H103.999V0.199951H102.199V12.7H89.6992Z" fill="#77CE8F"/>
<path d="M89.6992 60.8999V62.5999H102.199V75.0999H103.999V62.5999H116.499V60.8999H103.999V48.3999H102.199V60.8999H89.6992Z" fill="#77CE8F"/>
<path d="M89.6992 109V110.8H102.199V123.3H103.999V110.8H116.499V109H103.999V96.5H102.199V109H89.6992Z" fill="#77CE8F"/>
<path d="M89.6992 157.2V159H102.199V171.5H103.999V159H116.499V157.2H103.999V144.7H102.199V157.2H89.6992Z" fill="#77CE8F"/>
<path d="M89.6992 205.4V207.2H102.199V219.7H103.999V207.2H116.499V205.4H103.999V192.9H102.199V205.4H89.6992Z" fill="#77CE8F"/>
<path d="M89.6992 253.6V255.4H102.199V267.9H103.999V255.4H116.499V253.6H103.999V241.1H102.199V253.6H89.6992Z" fill="#77CE8F"/>
<path d="M45.0996 12.7V14.5H57.5996V26.9H59.3996V14.5H71.8996V12.7H59.3996V0.199951H57.5996V12.7H45.0996Z" fill="#77CE8F"/>
<path d="M45.0996 60.8999V62.5999H57.5996V75.0999H59.3996V62.5999H71.8996V60.8999H59.3996V48.3999H57.5996V60.8999H45.0996Z" fill="#77CE8F"/>
<path d="M45.0996 109V110.8H57.5996V123.3H59.3996V110.8H71.8996V109H59.3996V96.5H57.5996V109H45.0996Z" fill="#77CE8F"/>
<path d="M45.0996 157.2V159H57.5996V171.5H59.3996V159H71.8996V157.2H59.3996V144.7H57.5996V157.2H45.0996Z" fill="#77CE8F"/>
<path d="M45.0996 205.4V207.2H57.5996V219.7H59.3996V207.2H71.8996V205.4H59.3996V192.9H57.5996V205.4H45.0996Z" fill="#77CE8F"/>
<path d="M45.0996 253.6V255.4H57.5996V267.9H59.3996V255.4H71.8996V253.6H59.3996V241.1H57.5996V253.6H45.0996Z" fill="#77CE8F"/>
<path d="M13 12.7H0.5V14.5H13V26.9H14.8V14.5H27.3V12.7H14.8V0.199951H13V12.7Z" fill="#77CE8F"/>
<path d="M0.5 60.8999V62.5999H13V75.0999H14.8V62.5999H27.3V60.8999H14.8V48.3999H13V60.8999H0.5Z" fill="#77CE8F"/>
<path d="M0.5 109V110.8H13V123.3H14.8V110.8H27.3V109H14.8V96.5H13V109H0.5Z" fill="#77CE8F"/>
<path d="M0.5 157.2V159H13V171.5H14.8V159H27.3V157.2H14.8V144.7H13V157.2H0.5Z" fill="#77CE8F"/>
<path d="M0.5 205.4V207.2H13V219.7H14.8V207.2H27.3V205.4H14.8V192.9H13V205.4H0.5Z" fill="#77CE8F"/>
<path d="M0.5 253.6V255.4H13V267.9H14.8V255.4H27.3V253.6H14.8V241.1H13V253.6H0.5Z" fill="#77CE8F"/>
</g>
</g>
<defs>
<clipPath id="clip0_123_7">
<rect width="117" height="268" fill="white"/>
</clipPath>
</defs>
</svg>
