<svg width="319" height="8" viewBox="0 0 319 8" fill="none" xmlns="http://www.w3.org/2000/svg">
<path d="M3.9517 7.36932C3.0142 7.36932 2.20928 7.03788 1.53693 6.375C0.874053 5.70265 0.542614 4.89773 0.542614 3.96023C0.542614 3.0322 0.874053 2.23674 1.53693 1.57386C2.20928 0.910985 3.0142 0.579545 3.9517 0.579545C4.8608 0.579545 5.65625 0.910985 6.33807 1.57386C7.01989 2.23674 7.3608 3.0322 7.3608 3.96023C7.3608 4.58523 7.19981 5.15814 6.87784 5.67898C6.56534 6.19034 6.15341 6.60227 5.64205 6.91477C5.13068 7.2178 4.56723 7.36932 3.9517 7.36932ZM24.6658 7.36932C23.7283 7.36932 22.9233 7.03788 22.251 6.375C21.5881 5.70265 21.2567 4.89773 21.2567 3.96023C21.2567 3.0322 21.5881 2.23674 22.251 1.57386C22.9233 0.910985 23.7283 0.579545 24.6658 0.579545C25.5749 0.579545 26.3703 0.910985 27.0521 1.57386C27.7339 2.23674 28.0749 3.0322 28.0749 3.96023C28.0749 4.58523 27.9139 5.15814 27.5919 5.67898C27.2794 6.19034 26.8675 6.60227 26.3561 6.91477C25.8447 7.2178 25.2813 7.36932 24.6658 7.36932ZM45.3798 7.36932C44.4423 7.36932 43.6374 7.03788 42.9651 6.375C42.3022 5.70265 41.9707 4.89773 41.9707 3.96023C41.9707 3.0322 42.3022 2.23674 42.9651 1.57386C43.6374 0.910985 44.4423 0.579545 45.3798 0.579545C46.2889 0.579545 47.0844 0.910985 47.7662 1.57386C48.448 2.23674 48.7889 3.0322 48.7889 3.96023C48.7889 4.58523 48.6279 5.15814 48.306 5.67898C47.9935 6.19034 47.5815 6.60227 47.0702 6.91477C46.5588 7.2178 45.9954 7.36932 45.3798 7.36932ZM66.0939 7.36932C65.1564 7.36932 64.3515 7.03788 63.6791 6.375C63.0162 5.70265 62.6848 4.89773 62.6848 3.96023C62.6848 3.0322 63.0162 2.23674 63.6791 1.57386C64.3515 0.910985 65.1564 0.579545 66.0939 0.579545C67.003 0.579545 67.7984 0.910985 68.4803 1.57386C69.1621 2.23674 69.503 3.0322 69.503 3.96023C69.503 4.58523 69.342 5.15814 69.02 5.67898C68.7075 6.19034 68.2956 6.60227 67.7842 6.91477C67.2729 7.2178 66.7094 7.36932 66.0939 7.36932ZM86.808 7.36932C85.8705 7.36932 85.0655 7.03788 84.3932 6.375C83.7303 5.70265 83.3989 4.89773 83.3989 3.96023C83.3989 3.0322 83.7303 2.23674 84.3932 1.57386C85.0655 0.910985 85.8705 0.579545 86.808 0.579545C87.717 0.579545 88.5125 0.910985 89.1943 1.57386C89.8761 2.23674 90.217 3.0322 90.217 3.96023C90.217 4.58523 90.0561 5.15814 89.7341 5.67898C89.4216 6.19034 89.0097 6.60227 88.4983 6.91477C87.9869 7.2178 87.4235 7.36932 86.808 7.36932ZM107.522 7.36932C106.585 7.36932 105.78 7.03788 105.107 6.375C104.444 5.70265 104.113 4.89773 104.113 3.96023C104.113 3.0322 104.444 2.23674 105.107 1.57386C105.78 0.910985 106.585 0.579545 107.522 0.579545C108.431 0.579545 109.227 0.910985 109.908 1.57386C110.59 2.23674 110.931 3.0322 110.931 3.96023C110.931 4.58523 110.77 5.15814 110.448 5.67898C110.136 6.19034 109.724 6.60227 109.212 6.91477C108.701 7.2178 108.138 7.36932 107.522 7.36932ZM128.236 7.36932C127.299 7.36932 126.494 7.03788 125.821 6.375C125.158 5.70265 124.827 4.89773 124.827 3.96023C124.827 3.0322 125.158 2.23674 125.821 1.57386C126.494 0.910985 127.299 0.579545 128.236 0.579545C129.145 0.579545 129.941 0.910985 130.622 1.57386C131.304 2.23674 131.645 3.0322 131.645 3.96023C131.645 4.58523 131.484 5.15814 131.162 5.67898C130.85 6.19034 130.438 6.60227 129.926 6.91477C129.415 7.2178 128.852 7.36932 128.236 7.36932ZM148.95 7.36932C148.013 7.36932 147.208 7.03788 146.535 6.375C145.872 5.70265 145.541 4.89773 145.541 3.96023C145.541 3.0322 145.872 2.23674 146.535 1.57386C147.208 0.910985 148.013 0.579545 148.95 0.579545C149.859 0.579545 150.655 0.910985 151.337 1.57386C152.018 2.23674 152.359 3.0322 152.359 3.96023C152.359 4.58523 152.198 5.15814 151.876 5.67898C151.564 6.19034 151.152 6.60227 150.64 6.91477C150.129 7.2178 149.566 7.36932 148.95 7.36932ZM169.664 7.36932C168.727 7.36932 167.922 7.03788 167.249 6.375C166.587 5.70265 166.255 4.89773 166.255 3.96023C166.255 3.0322 166.587 2.23674 167.249 1.57386C167.922 0.910985 168.727 0.579545 169.664 0.579545C170.573 0.579545 171.369 0.910985 172.051 1.57386C172.732 2.23674 173.073 3.0322 173.073 3.96023C173.073 4.58523 172.912 5.15814 172.59 5.67898C172.278 6.19034 171.866 6.60227 171.355 6.91477C170.843 7.2178 170.28 7.36932 169.664 7.36932ZM190.378 7.36932C189.441 7.36932 188.636 7.03788 187.963 6.375C187.301 5.70265 186.969 4.89773 186.969 3.96023C186.969 3.0322 187.301 2.23674 187.963 1.57386C188.636 0.910985 189.441 0.579545 190.378 0.579545C191.287 0.579545 192.083 0.910985 192.765 1.57386C193.446 2.23674 193.787 3.0322 193.787 3.96023C193.787 4.58523 193.626 5.15814 193.304 5.67898C192.992 6.19034 192.58 6.60227 192.069 6.91477C191.557 7.2178 190.994 7.36932 190.378 7.36932ZM211.092 7.36932C210.155 7.36932 209.35 7.03788 208.678 6.375C208.015 5.70265 207.683 4.89773 207.683 3.96023C207.683 3.0322 208.015 2.23674 208.678 1.57386C209.35 0.910985 210.155 0.579545 211.092 0.579545C212.001 0.579545 212.797 0.910985 213.479 1.57386C214.161 2.23674 214.501 3.0322 214.501 3.96023C214.501 4.58523 214.34 5.15814 214.018 5.67898C213.706 6.19034 213.294 6.60227 212.783 6.91477C212.271 7.2178 211.708 7.36932 211.092 7.36932ZM231.806 7.36932C230.869 7.36932 230.064 7.03788 229.392 6.375C228.729 5.70265 228.397 4.89773 228.397 3.96023C228.397 3.0322 228.729 2.23674 229.392 1.57386C230.064 0.910985 230.869 0.579545 231.806 0.579545C232.715 0.579545 233.511 0.910985 234.193 1.57386C234.875 2.23674 235.215 3.0322 235.215 3.96023C235.215 4.58523 235.055 5.15814 234.733 5.67898C234.42 6.19034 234.008 6.60227 233.497 6.91477C232.985 7.2178 232.422 7.36932 231.806 7.36932ZM252.52 7.36932C251.583 7.36932 250.778 7.03788 250.106 6.375C249.443 5.70265 249.111 4.89773 249.111 3.96023C249.111 3.0322 249.443 2.23674 250.106 1.57386C250.778 0.910985 251.583 0.579545 252.52 0.579545C253.43 0.579545 254.225 0.910985 254.907 1.57386C255.589 2.23674 255.93 3.0322 255.93 3.96023C255.93 4.58523 255.769 5.15814 255.447 5.67898C255.134 6.19034 254.722 6.60227 254.211 6.91477C253.699 7.2178 253.136 7.36932 252.52 7.36932ZM273.235 7.36932C272.297 7.36932 271.492 7.03788 270.82 6.375C270.157 5.70265 269.825 4.89773 269.825 3.96023C269.825 3.0322 270.157 2.23674 270.82 1.57386C271.492 0.910985 272.297 0.579545 273.235 0.579545C274.144 0.579545 274.939 0.910985 275.621 1.57386C276.303 2.23674 276.644 3.0322 276.644 3.96023C276.644 4.58523 276.483 5.15814 276.161 5.67898C275.848 6.19034 275.436 6.60227 274.925 6.91477C274.413 7.2178 273.85 7.36932 273.235 7.36932ZM293.949 7.36932C293.011 7.36932 292.206 7.03788 291.534 6.375C290.871 5.70265 290.54 4.89773 290.54 3.96023C290.54 3.0322 290.871 2.23674 291.534 1.57386C292.206 0.910985 293.011 0.579545 293.949 0.579545C294.858 0.579545 295.653 0.910985 296.335 1.57386C297.017 2.23674 297.358 3.0322 297.358 3.96023C297.358 4.58523 297.197 5.15814 296.875 5.67898C296.562 6.19034 296.15 6.60227 295.639 6.91477C295.128 7.2178 294.564 7.36932 293.949 7.36932ZM314.663 7.36932C313.725 7.36932 312.92 7.03788 312.248 6.375C311.585 5.70265 311.254 4.89773 311.254 3.96023C311.254 3.0322 311.585 2.23674 312.248 1.57386C312.92 0.910985 313.725 0.579545 314.663 0.579545C315.572 0.579545 316.367 0.910985 317.049 1.57386C317.731 2.23674 318.072 3.0322 318.072 3.96023C318.072 4.58523 317.911 5.15814 317.589 5.67898C317.276 6.19034 316.864 6.60227 316.353 6.91477C315.842 7.2178 315.278 7.36932 314.663 7.36932Z" fill="#4A8549"/>
</svg>
