<svg width="250" height="76" viewBox="0 0 319 76" fill="none" xmlns="http://www.w3.org/2000/svg">
<g clip-path="url(#clip0_123_30)">
<mask id="mask0_123_30" style="mask-type:luminance" maskUnits="userSpaceOnUse" x="-456" y="-24" width="1300" height="732">
<path d="M844 708H-456V-24H844V708Z" fill="white"/>
</mask>
<g mask="url(#mask0_123_30)">
<path d="M312.701 70H318.501V75.7H312.701V70Z" fill="#393E46"/>
<path d="M312.701 35.5H318.501V41.2H312.701V35.5Z" fill="#393E46"/>
<path d="M312.701 1H318.501V6.7H312.701V1Z" fill="#393E46"/>
<path d="M281.5 70H287.2V75.7H281.5V70Z" fill="#393E46"/>
<path d="M281.5 35.5H287.2V41.2H281.5V35.5Z" fill="#393E46"/>
<path d="M281.5 1H287.2V6.7H281.5V1Z" fill="#393E46"/>
<path d="M250.301 70H256.001V75.7H250.301V70Z" fill="#393E46"/>
<path d="M250.301 35.5H256.001V41.2H250.301V35.5Z" fill="#393E46"/>
<path d="M250.301 1H256.001V6.7H250.301V1Z" fill="#393E46"/>
<path d="M219 70H224.7V75.7H219V70Z" fill="#393E46"/>
<path d="M219 35.5H224.7V41.2H219V35.5Z" fill="#393E46"/>
<path d="M219 1H224.7V6.7H219V1Z" fill="#393E46"/>
<path d="M187.801 70H193.501V75.7H187.801V70Z" fill="#393E46"/>
<path d="M187.801 35.5H193.501V41.2H187.801V35.5Z" fill="#393E46"/>
<path d="M187.801 1H193.501V6.7H187.801V1Z" fill="#393E46"/>
<path d="M156.5 70H162.2V75.7H156.5V70Z" fill="#393E46"/>
<path d="M156.5 35.5H162.2V41.2H156.5V35.5Z" fill="#393E46"/>
<path d="M156.5 1H162.2V6.7H156.5V1Z" fill="#393E46"/>
<path d="M125.301 70H131.001V75.7H125.301V70Z" fill="#393E46"/>
<path d="M125.301 35.5H131.001V41.2H125.301V35.5Z" fill="#393E46"/>
<path d="M125.301 1H131.001V6.7H125.301V1Z" fill="#393E46"/>
<path d="M94.1016 70H99.8016V75.7H94.1016V70Z" fill="#393E46"/>
<path d="M94.1016 35.5H99.8016V41.2H94.1016V35.5Z" fill="#393E46"/>
<path d="M94.1016 1H99.8016V6.7H94.1016V1Z" fill="#393E46"/>
<path d="M62.8008 70H68.5008V75.7H62.8008V70Z" fill="#393E46"/>
<path d="M62.8008 35.5H68.5008V41.2H62.8008V35.5Z" fill="#393E46"/>
<path d="M62.8008 1H68.5008V6.7H62.8008V1Z" fill="#393E46"/>
<path d="M31.6016 70H37.3016V75.7H31.6016V70Z" fill="#393E46"/>
<path d="M31.6016 35.5H37.3016V41.2H31.6016V35.5Z" fill="#393E46"/>
<path d="M31.6016 1H37.3016V6.7H31.6016V1Z" fill="#393E46"/>
<path d="M0.300781 70H6.00078V75.7H0.300781V70Z" fill="#393E46"/>
<path d="M0.300781 35.5H6.00078V41.2H0.300781V35.5Z" fill="#393E46"/>
<path d="M0.300781 1H6.00078V6.7H0.300781V1Z" fill="#393E46"/>
</g>
</g>
<defs>
<clipPath id="clip0_123_30">
<rect width="319" height="76" fill="white"/>
</clipPath>
</defs>
</svg>
