<svg width="1440" height="73" viewBox="0 0 1440 73" fill="none" xmlns="http://www.w3.org/2000/svg">
<path d="M0 30.709L34.3 28.9579C68.6 27.0746 137 23.7707 206 20.1363C274.3 16.5019 343 13.1979 411 18.3852C480 23.7707 549 37.6474 617 46.5681C685.7 55.4889 754 58.7929 823 48.3193C891.4 37.6474 960 13.1979 1029 4.27717C1097.1 -4.64358 1166 2.62518 1234 6.02828C1302.9 9.56355 1371 9.56354 1406 9.56354H1440V73H1405.7C1371.4 73 1303 73 1234 73C1165.7 73 1097 73 1029 73C960 73 891 73 823 73C754.3 73 686 73 617 73C548.6 73 480 73 411 73C342.9 73 274 73 206 73C137.1 73 69 73 34 73H0V30.709Z" fill="#77CE8F"/>
</svg>
