<svg width="1440" height="97" viewBox="0 0 1440 97" fill="none" xmlns="http://www.w3.org/2000/svg">
<path d="M0 40.8051L34.3 38.4783C68.6 35.9759 137 31.5857 206 26.7564C274.3 21.9272 343 17.537 411 24.4296C480 31.5857 549 50.0246 617 61.8782C685.7 73.7318 754 78.122 823 64.205C891.4 50.0246 960 17.537 1029 5.68337C1097.1 -6.17023 1166 3.48826 1234 8.01019C1302.9 12.7077 1371 12.7077 1406 12.7077H1440V97H1405.7C1371.4 97 1303 97 1234 97C1165.7 97 1097 97 1029 97C960 97 891 97 823 97C754.3 97 686 97 617 97C548.6 97 480 97 411 97C342.9 97 274 97 206 97C137.1 97 69 97 34 97H0V40.8051Z" fill="#77CE8F" fill-opacity="0.6"/>
</svg>
