<svg width="585" height="421" viewBox="0 0 585 421" fill="none" xmlns="http://www.w3.org/2000/svg">
<path d="M189.644 231.841L284.385 70.975L234.913 0L56.2627 78.2504L0 254.475L78.2504 332.888L127.238 217.775L173.8 421L287.134 325.127L189.644 231.841Z" fill="#CEC1A3"/>
<path d="M350.028 0L528.678 78.2504L584.941 254.475L506.691 332.888L457.703 217.775L411.141 421L188.516 232.488L350.028 0Z" fill="#4A8549"/>
<path d="M242.352 225.212C242.352 234.105 235.077 241.38 226.023 241.38C217.131 241.38 209.855 234.105 209.855 225.212C209.855 216.159 217.131 208.883 226.023 208.883C235.077 208.883 242.352 216.159 242.352 225.212Z" fill="#F2EBDD"/>
<g style="mix-blend-mode:multiply" opacity="0.3">
<path d="M127.238 217.776L56.2627 78.2507L0 254.476L127.238 217.776Z" fill="#CEC1A3"/>
</g>
<g style="mix-blend-mode:multiply" opacity="0.4">
<path d="M457.703 217.776L528.678 78.2507L584.941 254.476L457.703 217.776Z" fill="#4A8549"/>
</g>
<path d="M226.021 225.212H417.282" stroke="#F2EBDD" stroke-width="4" stroke-miterlimit="10" stroke-linecap="round"/>
</svg>