<svg width="20" height="30" viewBox="0 0 20 30" fill="none" xmlns="http://www.w3.org/2000/svg">
<path d="M18.4615 0C18.8384 4.84658e-05 19.2021 0.134934 19.4836 0.379073C19.7652 0.623212 19.9451 0.959623 19.9892 1.3245L20 1.5V7.5C20 7.8674 19.8616 8.22201 19.6112 8.49656C19.3608 8.77111 19.0158 8.94651 18.6415 8.9895L18.4615 9H13.8462V10.5H18.4615C18.6805 10.5001 18.897 10.5458 19.0965 10.634C19.2959 10.7222 19.4737 10.8509 19.6181 11.0115C19.7624 11.1721 19.8699 11.3609 19.9334 11.5652C19.9968 11.7696 20.0148 11.9848 19.9862 12.1965L19.9554 12.3645L18.4169 18.3645C18.3406 18.6608 18.1733 18.9272 17.9374 19.1283C17.7015 19.3293 17.4083 19.4553 17.0969 19.4895L16.9231 19.5H13.8462V28.5C13.8461 28.8674 13.7078 29.222 13.4574 29.4966C13.207 29.7711 12.8619 29.9465 12.4877 29.9895L12.3077 30H6.15385C5.77703 30 5.41333 29.8651 5.13173 29.6209C4.85014 29.3768 4.67024 29.0404 4.62615 28.6755L4.61538 28.5V19.5H1.53846C1.16164 19.5 0.797943 19.3651 0.516351 19.1209C0.234759 18.8768 0.0548572 18.5404 0.0107692 18.1755L0 18V12C4.97085e-05 11.6326 0.138394 11.278 0.388792 11.0034C0.639191 10.7289 0.984229 10.5535 1.35846 10.5105L1.53846 10.5H4.61538V9C4.6153 6.67143 5.54087 4.43346 7.19764 2.75629C8.85441 1.07913 11.1134 0.0933213 13.5 0.00599992L13.8462 0H18.4615Z" fill="#22427D"/>
</svg>
