<svg width="31" height="25" viewBox="0 0 31 25" fill="none" xmlns="http://www.w3.org/2000/svg">
<path d="M18.4 0.710427C15.8542 1.77379 14.1804 4.11126 14.0945 6.78284L14.0917 7.03516L13.7493 7.00328C10.3793 6.63034 7.41216 4.90705 5.37492 2.10791C5.23697 1.91821 5.05261 1.76582 4.8389 1.66487C4.6252 1.56391 4.38906 1.51765 4.15236 1.53037C3.91565 1.54308 3.68604 1.61437 3.48477 1.73762C3.28351 1.86087 3.1171 2.0321 3.00096 2.23546L2.8643 2.49333L2.79526 2.63059C1.78228 4.68938 1.1187 7.19183 1.36243 9.844L1.4047 10.2225C1.80341 13.3599 3.51802 16.0661 6.72886 18.0958L6.97259 18.2442L6.85847 18.3038C5.0058 19.223 3.31091 19.6236 1.46669 19.5515C-0.0210865 19.4961 -0.57055 21.4537 0.736891 22.1552C5.80604 24.8739 11.2485 25.7127 15.9415 24.3734C21.6616 22.7375 26.0178 18.5187 27.6845 12.682L27.8635 11.9957C28.1988 10.619 28.3876 9.21458 28.4284 7.80323L28.4326 7.34294L28.9863 6.26294L29.6062 5.06787L29.9077 4.46617L30.074 4.12373C30.4473 3.34042 30.7164 2.69159 30.8827 2.14119L30.9024 2.06355L30.9137 2.03859C31.2236 1.21646 30.6798 0.155869 29.5879 0.155869L29.416 0.165574C29.3047 0.179037 29.1955 0.205568 29.0906 0.244598L28.9694 0.297281C28.5674 0.489422 28.1533 0.656128 27.7296 0.796384L27.2281 0.955819L26.8462 1.06673L25.7586 1.36342C23.8763 -0.186571 21.3291 -0.375121 18.6973 0.595356L18.4 0.710427Z" fill="#00ACEE"/>
</svg>
